<?xml version="1.0" encoding="iso-8859-1"?>
<!-- Uploaded to: SVG Repo, www.svgrepo.com, Generator: SVG Repo Mixer Tools -->
<svg version="1.1" id="Layer_1" xmlns="http://www.w3.org/2000/svg" xmlns:xlink="http://www.w3.org/1999/xlink" 
	 viewBox="0 0 340.228 340.228" xml:space="preserve">
<g id="XMLID_1491_">
	<path id="XMLID_586_" style="fill:#FFE165;" d="M286.296,271.905H53.932c-18.677,0-33.818-15.141-33.818-33.818v-88.979
		c0-18.677,15.141-33.818,33.818-33.818h232.364c18.677,0,33.818,15.141,33.818,33.818v88.979
		C320.114,256.764,304.973,271.905,286.296,271.905z"/>
	<g id="XMLID_1492_">
		<path id="XMLID_1493_" style="fill:#FF5959;" d="M340.228,147.885c0,3.021-1.23,5.746-3.202,7.728
			c-1.982,1.971-4.707,3.201-7.728,3.201H10.93c-2.809,0-5.375-1.06-7.304-2.809C1.399,154.012,0,151.109,0,147.885
			c0-21.976,8.905-41.864,23.301-56.26S57.585,68.325,79.55,68.325h181.118c17.067,0,32.863,5.365,45.817,14.513
			c7.961,5.608,14.841,12.658,20.28,20.746C335.266,116.242,340.228,131.486,340.228,147.885z"/>
		<g id="XMLID_1494_">
			<path id="XMLID_1495_" style="fill:#FFFEB9;" d="M132.321,68.325l-90.49,90.49H10.93c-2.809,0-5.375-1.06-7.304-2.809
				l87.681-87.682h41.014V68.325z"/>
			<polygon id="XMLID_1496_" style="fill:#FFFEB9;" points="247.172,68.325 156.682,158.814 115.667,158.814 206.147,68.325 			"/>
			<path id="XMLID_1497_" style="fill:#FFFEB9;" d="M326.764,103.585l-55.231,55.231h-41.026l75.977-75.977
				C314.446,88.446,321.326,95.496,326.764,103.585z"/>
		</g>
	</g>
	<rect id="XMLID_579_" x="145.221" y="68.325" style="fill:#5FD2DB;" width="49.785" height="203.579"/>
</g>
</svg>